<svg width="13" height="12" viewBox="0 0 13 12" fill="none" xmlns="http://www.w3.org/2000/svg">
<path d="M9.88577 0L6.99306 8.59785C6.9575 8.70383 6.89492 8.79675 6.81261 8.86588C6.73027 8.93501 6.63153 8.97752 6.52782 8.98851H9.58538C9.69945 8.98849 9.81075 8.95044 9.90413 8.87956C9.99749 8.80869 10.0684 8.70842 10.1073 8.59237L13 0H9.88577Z" fill="white"/>
<path d="M6.27901 8.86268C6.36316 8.86301 6.44619 8.84143 6.52102 8.79972C6.59585 8.758 6.66027 8.69738 6.70886 8.62302C6.73755 8.58033 6.7607 8.53356 6.77763 8.48403L7.83663 5.32811L7.21458 3.48642C7.17826 3.39346 7.11968 3.31264 7.04487 3.2523C6.97009 3.19198 6.88179 3.15429 6.78907 3.14314C6.69635 3.13199 6.60255 3.1478 6.51734 3.18888C6.43215 3.22998 6.3586 3.29491 6.30429 3.37698C6.27562 3.42008 6.25248 3.4672 6.23552 3.51704L5.17451 6.67079L5.79857 8.52016C5.83921 8.62181 5.90644 8.70842 5.99196 8.76928C6.07752 8.83013 6.17763 8.8626 6.28002 8.86268" fill="white"/>
<path d="M6.50659 3.00603H3.41462C3.30067 3.00598 3.18947 3.04385 3.09611 3.11452C3.00273 3.18519 2.93173 3.28522 2.89271 3.40104L0 12H3.11423L6.00694 3.40104C6.04468 3.28925 6.11237 3.19216 6.20136 3.12218C6.29037 3.0522 6.39664 3.01251 6.50659 3.00821V3.00603Z" fill="white"/>
</svg>
